<?xml version="1.0" encoding="UTF-8" standalone="no"?>
<!DOCTYPE svg PUBLIC "-//W3C//DTD SVG 1.1//EN"
 "http://www.w3.org/Graphics/SVG/1.1/DTD/svg11.dtd">
<!-- Generated by graphviz version 2.40.1 (20161225.0304)
 -->
<!-- Title: dependencies Pages: 1 -->
<svg width="1814pt" height="284pt"
 viewBox="0.00 0.00 1814.00 284.00" xmlns="http://www.w3.org/2000/svg" xmlns:xlink="http://www.w3.org/1999/xlink">
<g id="graph0" class="graph" transform="scale(1 1) rotate(0) translate(4 280)">
<title>dependencies</title>
<polygon fill="#ffffff" stroke="transparent" points="-4,4 -4,-280 1810,-280 1810,4 -4,4"/>
<text text-anchor="start" x="882.0091" y="-42.4" font-family="sans-serif" font-weight="bold" font-size="14.00" fill="#000000">Legend</text>
<polygon fill="#ffffb3" stroke="transparent" points="669,-10 669,-30 689,-30 689,-10 669,-10"/>
<text text-anchor="start" x="692.629" y="-15.4" font-family="sans-serif" font-size="14.00" fill="#000000"> &#160;Declarations</text>
<polygon fill="#8dd3c7" stroke="transparent" points="782,-10 782,-30 802,-30 802,-10 782,-10"/>
<text text-anchor="start" x="805.7251" y="-15.4" font-family="sans-serif" font-size="14.00" fill="#000000"> &#160;Module</text>
<polygon fill="#80b1d3" stroke="transparent" points="868,-10 868,-30 888,-30 888,-10 868,-10"/>
<text text-anchor="start" x="891.7812" y="-15.4" font-family="sans-serif" font-size="14.00" fill="#000000"> &#160;Bootstrap</text>
<polygon fill="#fdb462" stroke="transparent" points="965,-10 965,-30 985,-30 985,-10 965,-10"/>
<text text-anchor="start" x="988.6732" y="-15.4" font-family="sans-serif" font-size="14.00" fill="#000000"> &#160;Providers</text>
<polygon fill="#fb8072" stroke="transparent" points="1061,-10 1061,-30 1081,-30 1081,-10 1061,-10"/>
<text text-anchor="start" x="1084.7258" y="-15.4" font-family="sans-serif" font-size="14.00" fill="#000000"> &#160;Exports</text>
<g id="clust1" class="cluster">
<title>cluster_AppModule</title>
<polygon fill="none" stroke="#000000" stroke-dasharray="1,5" points="8,-70 8,-268 1798,-268 1798,-70 8,-70"/>
</g>
<g id="clust2" class="cluster">
<title>cluster_AppModule_declarations</title>
<polygon fill="none" stroke="#000000" points="520,-78 520,-130 1790,-130 1790,-78 520,-78"/>
</g>
<g id="clust12" class="cluster">
<title>cluster_AppModule_imports</title>
<polygon fill="none" stroke="#000000" points="368,-78 368,-130 512,-130 512,-78 368,-78"/>
</g>
<g id="clust14" class="cluster">
<title>cluster_AppModule_bootstrap</title>
<polygon fill="none" stroke="#000000" points="865,-208 865,-260 989,-260 989,-208 865,-208"/>
</g>
<g id="clust15" class="cluster">
<title>cluster_AppModule_providers</title>
<polygon fill="none" stroke="#000000" points="16,-78 16,-130 360,-130 360,-78 16,-78"/>
</g>
<!-- AppComponent -->
<g id="node1" class="node">
<title>AppComponent</title>
<polygon fill="#ffffb3" stroke="#000000" points="1781.9399,-122 1676.0601,-122 1676.0601,-86 1781.9399,-86 1781.9399,-122"/>
<text text-anchor="middle" x="1729" y="-99.8" font-family="Times,serif" font-size="14.00" fill="#000000">AppComponent</text>
</g>
<!-- AppModule -->
<g id="node10" class="node">
<title>AppModule</title>
<polygon fill="#8dd3c7" stroke="#000000" points="968.6571,-187 965.6571,-191 944.6571,-191 941.6571,-187 885.3429,-187 885.3429,-151 968.6571,-151 968.6571,-187"/>
<text text-anchor="middle" x="927" y="-164.8" font-family="Times,serif" font-size="14.00" fill="#000000">AppModule</text>
</g>
<!-- AppComponent&#45;&gt;AppModule -->
<g id="edge1" class="edge">
<title>AppComponent&#45;&gt;AppModule</title>
<path fill="none" stroke="#000000" d="M1729,-122.2479C1729,-145.0179 1729,-181 1729,-181 1729,-181 978.7096,-181 978.7096,-181"/>
<polygon fill="#000000" stroke="#000000" points="978.7096,-177.5001 968.7096,-181 978.7096,-184.5001 978.7096,-177.5001"/>
</g>
<!-- CartComponent -->
<g id="node2" class="node">
<title>CartComponent</title>
<polygon fill="#ffffb3" stroke="#000000" points="1658.9357,-122 1553.0643,-122 1553.0643,-86 1658.9357,-86 1658.9357,-122"/>
<text text-anchor="middle" x="1606" y="-99.8" font-family="Times,serif" font-size="14.00" fill="#000000">CartComponent</text>
</g>
<!-- CartComponent&#45;&gt;AppModule -->
<g id="edge2" class="edge">
<title>CartComponent&#45;&gt;AppModule</title>
<path fill="none" stroke="#000000" d="M1606,-122.2843C1606,-143.3211 1606,-175 1606,-175 1606,-175 978.7069,-175 978.7069,-175"/>
<polygon fill="#000000" stroke="#000000" points="978.7069,-171.5001 968.7069,-175 978.7069,-178.5001 978.7069,-171.5001"/>
</g>
<!-- ConfirmationComponent -->
<g id="node3" class="node">
<title>ConfirmationComponent</title>
<polygon fill="#ffffb3" stroke="#000000" points="1535.2674,-122 1378.7326,-122 1378.7326,-86 1535.2674,-86 1535.2674,-122"/>
<text text-anchor="middle" x="1457" y="-99.8" font-family="Times,serif" font-size="14.00" fill="#000000">ConfirmationComponent</text>
</g>
<!-- ConfirmationComponent&#45;&gt;AppModule -->
<g id="edge3" class="edge">
<title>ConfirmationComponent&#45;&gt;AppModule</title>
<path fill="none" stroke="#000000" d="M1457,-122.1061C1457,-141.3391 1457,-169 1457,-169 1457,-169 979.0312,-169 979.0312,-169"/>
<polygon fill="#000000" stroke="#000000" points="979.0313,-165.5001 969.0312,-169 979.0312,-172.5001 979.0313,-165.5001"/>
</g>
<!-- DragDropComponent -->
<g id="node4" class="node">
<title>DragDropComponent</title>
<polygon fill="#ffffb3" stroke="#000000" points="1361.0814,-122 1222.9186,-122 1222.9186,-86 1361.0814,-86 1361.0814,-122"/>
<text text-anchor="middle" x="1292" y="-99.8" font-family="Times,serif" font-size="14.00" fill="#000000">DragDropComponent</text>
</g>
<!-- DragDropComponent&#45;&gt;AppModule -->
<g id="edge4" class="edge">
<title>DragDropComponent&#45;&gt;AppModule</title>
<path fill="none" stroke="#000000" d="M1292,-122.0225C1292,-139.3734 1292,-163 1292,-163 1292,-163 978.8701,-163 978.8701,-163"/>
<polygon fill="#000000" stroke="#000000" points="978.8702,-159.5001 968.8701,-163 978.8701,-166.5001 978.8702,-159.5001"/>
</g>
<!-- FooterComponent -->
<g id="node5" class="node">
<title>FooterComponent</title>
<polygon fill="#ffffb3" stroke="#000000" points="1204.8809,-122 1087.1191,-122 1087.1191,-86 1204.8809,-86 1204.8809,-122"/>
<text text-anchor="middle" x="1146" y="-99.8" font-family="Times,serif" font-size="14.00" fill="#000000">FooterComponent</text>
</g>
<!-- FooterComponent&#45;&gt;AppModule -->
<g id="edge5" class="edge">
<title>FooterComponent&#45;&gt;AppModule</title>
<path fill="none" stroke="#000000" d="M1146,-122.2396C1146,-137.5706 1146,-157 1146,-157 1146,-157 978.7077,-157 978.7077,-157"/>
<polygon fill="#000000" stroke="#000000" points="978.7077,-153.5001 968.7077,-157 978.7077,-160.5001 978.7077,-153.5001"/>
</g>
<!-- FrontPageComponent -->
<g id="node6" class="node">
<title>FrontPageComponent</title>
<polygon fill="#ffffb3" stroke="#000000" points="1069.3781,-122 930.6219,-122 930.6219,-86 1069.3781,-86 1069.3781,-122"/>
<text text-anchor="middle" x="1000" y="-99.8" font-family="Times,serif" font-size="14.00" fill="#000000">FrontPageComponent</text>
</g>
<!-- FrontPageComponent&#45;&gt;AppModule -->
<g id="edge6" class="edge">
<title>FrontPageComponent&#45;&gt;AppModule</title>
<path fill="none" stroke="#000000" d="M949.6946,-122.1061C949.6946,-122.1061 949.6946,-140.991 949.6946,-140.991"/>
<polygon fill="#000000" stroke="#000000" points="946.1947,-140.9909 949.6946,-150.991 953.1947,-140.991 946.1947,-140.9909"/>
</g>
<!-- MerchComponent -->
<g id="node7" class="node">
<title>MerchComponent</title>
<polygon fill="#ffffb3" stroke="#000000" points="912.8669,-122 795.1331,-122 795.1331,-86 912.8669,-86 912.8669,-122"/>
<text text-anchor="middle" x="854" y="-99.8" font-family="Times,serif" font-size="14.00" fill="#000000">MerchComponent</text>
</g>
<!-- MerchComponent&#45;&gt;AppModule -->
<g id="edge7" class="edge">
<title>MerchComponent&#45;&gt;AppModule</title>
<path fill="none" stroke="#000000" d="M899.0526,-122.1061C899.0526,-122.1061 899.0526,-140.991 899.0526,-140.991"/>
<polygon fill="#000000" stroke="#000000" points="895.5527,-140.9909 899.0526,-150.991 902.5527,-140.991 895.5527,-140.9909"/>
</g>
<!-- NavbarComponent -->
<g id="node8" class="node">
<title>NavbarComponent</title>
<polygon fill="#ffffb3" stroke="#000000" points="777.0297,-122 654.9703,-122 654.9703,-86 777.0297,-86 777.0297,-122"/>
<text text-anchor="middle" x="716" y="-99.8" font-family="Times,serif" font-size="14.00" fill="#000000">NavbarComponent</text>
</g>
<!-- NavbarComponent&#45;&gt;AppModule -->
<g id="edge8" class="edge">
<title>NavbarComponent&#45;&gt;AppModule</title>
<path fill="none" stroke="#000000" d="M716,-122.2396C716,-137.5706 716,-157 716,-157 716,-157 875.3132,-157 875.3132,-157"/>
<polygon fill="#000000" stroke="#000000" points="875.3132,-160.5001 885.3132,-157 875.3132,-153.5001 875.3132,-160.5001"/>
</g>
<!-- QuizComponent -->
<g id="node9" class="node">
<title>QuizComponent</title>
<polygon fill="#ffffb3" stroke="#000000" points="636.0452,-122 527.9548,-122 527.9548,-86 636.0452,-86 636.0452,-122"/>
<text text-anchor="middle" x="582" y="-99.8" font-family="Times,serif" font-size="14.00" fill="#000000">QuizComponent</text>
</g>
<!-- QuizComponent&#45;&gt;AppModule -->
<g id="edge9" class="edge">
<title>QuizComponent&#45;&gt;AppModule</title>
<path fill="none" stroke="#000000" d="M582,-122.0225C582,-139.3734 582,-163 582,-163 582,-163 875.0411,-163 875.0411,-163"/>
<polygon fill="#000000" stroke="#000000" points="875.0412,-166.5001 885.0411,-163 875.0411,-159.5001 875.0412,-166.5001"/>
</g>
<!-- AppComponent  -->
<g id="node12" class="node">
<title>AppComponent </title>
<polygon fill="#80b1d3" stroke="#000000" points="981.439,-252 872.561,-252 872.561,-216 981.439,-216 981.439,-252"/>
<text text-anchor="middle" x="927" y="-229.8" font-family="Times,serif" font-size="14.00" fill="#000000">AppComponent </text>
</g>
<!-- AppModule&#45;&gt;AppComponent  -->
<g id="edge11" class="edge">
<title>AppModule&#45;&gt;AppComponent </title>
<path fill="none" stroke="#000000" stroke-dasharray="1,5" d="M927,-187.1061C927,-187.1061 927,-205.991 927,-205.991"/>
<polygon fill="#000000" stroke="#000000" points="923.5001,-205.9909 927,-215.991 930.5001,-205.991 923.5001,-205.9909"/>
</g>
<!-- AppRoutingModule -->
<g id="node11" class="node">
<title>AppRoutingModule</title>
<polygon fill="#8dd3c7" stroke="#000000" points="504.2744,-122 501.2744,-126 480.2744,-126 477.2744,-122 375.7256,-122 375.7256,-86 504.2744,-86 504.2744,-122"/>
<text text-anchor="middle" x="440" y="-99.8" font-family="Times,serif" font-size="14.00" fill="#000000">AppRoutingModule</text>
</g>
<!-- AppRoutingModule&#45;&gt;AppModule -->
<g id="edge10" class="edge">
<title>AppRoutingModule&#45;&gt;AppModule</title>
<path fill="none" stroke="#000000" d="M440,-122.1061C440,-141.3391 440,-169 440,-169 440,-169 875.0572,-169 875.0572,-169"/>
<polygon fill="#000000" stroke="#000000" points="875.0572,-172.5001 885.0572,-169 875.0571,-165.5001 875.0572,-172.5001"/>
</g>
<!-- DragAndDropService -->
<g id="node13" class="node">
<title>DragAndDropService</title>
<ellipse fill="#fdb462" stroke="#000000" cx="256" cy="-104" rx="95.5298" ry="18"/>
<text text-anchor="middle" x="256" y="-99.8" font-family="Times,serif" font-size="14.00" fill="#000000">DragAndDropService</text>
</g>
<!-- DragAndDropService&#45;&gt;AppModule -->
<g id="edge12" class="edge">
<title>DragAndDropService&#45;&gt;AppModule</title>
<path fill="none" stroke="#000000" d="M256,-122.2843C256,-143.3211 256,-175 256,-175 256,-175 875.2795,-175 875.2795,-175"/>
<polygon fill="#000000" stroke="#000000" points="875.2795,-178.5001 885.2795,-175 875.2794,-171.5001 875.2795,-178.5001"/>
</g>
<!-- QuizService -->
<g id="node14" class="node">
<title>QuizService</title>
<ellipse fill="#fdb462" stroke="#000000" cx="83" cy="-104" rx="58.5251" ry="18"/>
<text text-anchor="middle" x="83" y="-99.8" font-family="Times,serif" font-size="14.00" fill="#000000">QuizService</text>
</g>
<!-- QuizService&#45;&gt;AppModule -->
<g id="edge13" class="edge">
<title>QuizService&#45;&gt;AppModule</title>
<path fill="none" stroke="#000000" d="M83,-122.2479C83,-145.0179 83,-181 83,-181 83,-181 875.1459,-181 875.1459,-181"/>
<polygon fill="#000000" stroke="#000000" points="875.1459,-184.5001 885.1459,-181 875.1459,-177.5001 875.1459,-184.5001"/>
</g>
</g>
</svg>
